<!DOCTYPE svg PUBLIC "-//W3C//DTD SVG 1.1//EN" "http://www.w3.org/Graphics/SVG/1.1/DTD/svg11.dtd">
<!-- Uploaded to: SVG Repo, www.svgrepo.com, Transformed by: SVG Repo Mixer Tools -->
<svg width="800px" height="800px" viewBox="0 0 24 24" fill="none" xmlns="http://www.w3.org/2000/svg">
<g id="SVGRepo_bgCarrier" stroke-width="0"/>
<g id="SVGRepo_tracerCarrier" stroke-linecap="round" stroke-linejoin="round"/>
<g id="SVGRepo_iconCarrier"> <path fill-rule="evenodd" clip-rule="evenodd" d="M18 3C19.6569 3 21 4.34315 21 6V15H22C22.5523 15 23 15.4477 23 16V18C23 19.6569 21.6569 21 20 21H4C2.34315 21 1 19.6569 1 18V16C1 15.4477 1.44772 15 2 15H3V6C3 4.34315 4.34315 3 6 3H18ZM5 15H19V6C19 5.44772 18.5523 5 18 5H6C5.44772 5 5 5.44772 5 6V15ZM21 17H3V18C3 18.5523 3.44772 19 4 19H20C20.5523 19 21 18.5523 21 18V17Z" fill="#FFFFFF"/> </g>
</svg>