<?xml version="1.0" encoding="UTF-8"?>
<svg version="1.1" xmlns="http://www.w3.org/2000/svg" width="1080" height="1080">
<path d="M0 0 C356.4 0 712.8 0 1080 0 C1080 356.4 1080 712.8 1080 1080 C723.6 1080 367.2 1080 0 1080 C0 723.6 0 367.2 0 0 Z " fill="#C10B11" transform="translate(0,0)"/>
<path d="M0 0 C3.57928719 1.44101172 5.07400774 3.14280801 7.125 6.375 C7.62257813 7.14585937 8.12015625 7.91671875 8.6328125 8.7109375 C11.70919969 13.86168862 13.34777254 17.94493365 12 24 C9.9822506 27.02147678 7.55953355 29.44046645 5 32 C0.93246586 40.13506827 4.45365012 54.03417455 7.03515625 62.32421875 C10.62610167 72.26571073 14.53351643 80.78982216 24.16796875 85.9609375 C31.6194101 88.69484564 38.88267963 87.74751267 46.1875 85 C61.83425142 77.62955657 71.29395849 63.94028456 79 49 C80.31517278 45.05448165 80.9115792 40.8231584 79 37 C78.44031758 33.5019849 78.3529341 31.05274986 80.24609375 27.97265625 C84.45335711 22.91033706 89.38098725 19.36376274 95 16 C97 17 97 17 97.60546875 18.6328125 C98.7040356 25.2242136 99.07875581 32.32656169 96.5625 38.5625 C94.17636758 40.83223571 92.46446088 41.83287577 89.5625 43.25 C82.97003771 46.65989429 81.30787753 52.12402286 79.03515625 58.859375 C76.16938597 68.84334887 75.23191716 79.19966098 79.66796875 88.83984375 C82.45967663 93.36715888 86.04780879 96.0239044 90.75 98.375 C103.26237839 100.78122661 112.44579228 97.06254231 123 90.375 C131.61005087 84.35929341 140.37691949 78.18905063 143.953125 68.0078125 C146.73109153 62.67992148 153.56390023 59.90042512 159 58 C159.99 58 160.98 58 162 58 C160.59685357 63.61258574 158.18075491 68.02166526 154 72 C151.9118751 73.1920505 149.78204066 74.31272621 147.625 75.375 C135.65653319 81.42723606 129.42369958 93.0836177 125.14697266 105.47070312 C120.54298724 119.82727393 118.02948075 133.9641628 117 149 C116.34 149 115.68 149 115 149 C115 148.34 115 147.68 115 147 C112.92736689 146.29741251 110.85310288 145.5994591 108.7734375 144.91796875 C106.95879336 144.3173471 105.15094293 143.69569194 103.3515625 143.05078125 C71.04942885 132.0957681 33.99255579 132.72157537 0.3125 132.75 C-0.8446048 132.75068481 -2.00170959 132.75136963 -3.19387817 132.7520752 C-22.81864477 132.79045149 -42.37279643 133.14132131 -61.859375 135.61962891 C-63.89730969 135.87782654 -65.93664897 136.12126583 -67.9765625 136.36328125 C-83.38458954 138.2383668 -98.57788327 141.05682003 -113 147 C-113 147.66 -113 148.32 -113 149 C-113.66 149 -114.32 149 -115 149 C-115.08636719 147.87207031 -115.17273438 146.74414062 -115.26171875 145.58203125 C-117.19138293 123.03695976 -121.63890941 95.24916533 -138.9375 79 C-141.58066816 76.83229536 -143.87794795 75.53905665 -147.125 74.5 C-153.07440683 72.5947872 -155.91031053 67.92511806 -158.875 62.6875 C-160 60 -160 60 -160 58 C-152.88180205 59.8569212 -147.29298499 61.70701501 -142 67 C-141.71125 68.134375 -141.4225 69.26875 -141.125 70.4375 C-136.72299405 82.52659098 -120.57113486 90.88069237 -109.8984375 96.6875 C-103.93219018 99.3891969 -97.46047217 99.90688446 -91 99 C-84.76299569 96.48254994 -80.05551473 93.11102947 -77 87 C-72.64048733 75.81482697 -74.52548002 63.84776718 -79 53 C-81.7081979 46.85677167 -84.76557556 44.01828657 -90.9140625 41.30078125 C-93.68058372 39.57559105 -94.64810091 37.95383595 -96 35 C-96.82910169 28.45633721 -96.24822557 22.18262033 -94 16 C-87.30404131 19.22398011 -81.5079829 22.98172842 -77 29 C-75.91680916 32.61063614 -75.36612926 34.60548437 -76.9375 38.0625 C-77.288125 38.701875 -77.63875 39.34125 -78 40 C-78.95583189 50.71456714 -70.69190049 61.1496799 -64.26049805 69.15014648 C-57.02191534 77.78402969 -47.68455193 85.75076985 -36.17578125 87.40625 C-28.85751703 87.65121282 -22.13428621 86.47827282 -16.3125 81.875 C-7.15291967 70.48741364 -3.39891408 59.54219984 -2 45 C-1.86851562 43.93007813 -1.73703125 42.86015625 -1.6015625 41.7578125 C-1.27100547 37.2781948 -1.05689089 34.28081631 -3.7890625 30.5703125 C-5.24619627 29.08228543 -6.71476902 27.60536197 -8.1953125 26.140625 C-10.18238919 23.78365958 -10.69397589 22.60796437 -10.875 19.5625 C-10.16688762 12.07486723 -4.77060491 5.50454413 0 0 Z " fill="#FEFCFC" transform="translate(539,317)"/>
<path d="M0 0 C0 11.88 0 23.76 0 36 C-0.66 36 -1.32 36 -2 36 C-2.27972656 35.24976563 -2.55945313 34.49953125 -2.84765625 33.7265625 C-7.85061032 20.95374729 -14.58614391 10.13140846 -27.578125 4.4296875 C-42.97055085 -1.20561485 -60.68566726 -3.02988438 -76 4 C-79.20948304 5.77494138 -82.12610499 7.72550209 -85 10 C-85.9796875 10.75667969 -86.959375 11.51335938 -87.96875 12.29296875 C-91.08780093 14.92054476 -93.38953235 17.94048224 -95.5625 21.375 C-95.94599609 21.97787842 -96.32949219 22.58075684 -96.72460938 23.2019043 C-106.99657787 40.07200483 -108.93081649 62.52004614 -104.56542969 81.5949707 C-100.52355819 97.07571568 -93.37871583 110.35728077 -79.8125 119.39453125 C-65.48232485 127.5746729 -46.47708472 129.72187713 -30.35546875 125.75390625 C-21.80052282 123.01575606 -14.19018462 119.39608865 -7 114 C-6.18273437 113.39929688 -5.36546875 112.79859375 -4.5234375 112.1796875 C8.62972188 100.81828977 14.02000611 82.59504409 15.33203125 65.921875 C15.59754742 62.28341412 15.81086819 58.6432759 16 55 C16.99 55.33 17.98 55.66 19 56 C19.62397559 78.55556213 17.4640927 99.86326063 1.79296875 117.3125 C-6.55426039 125.34451909 -15.92330667 130.5512127 -27 134 C-27.92167969 134.31839844 -28.84335937 134.63679687 -29.79296875 134.96484375 C-53.07218651 141.78210455 -82.29133186 137.28133718 -103.48828125 126.046875 C-108.04880911 123.46860479 -112.08502048 120.47444042 -116 117 C-116.59683594 116.54367187 -117.19367187 116.08734375 -117.80859375 115.6171875 C-130.59791543 105.64778307 -137.19160529 89.57577813 -140 74 C-141.45228589 54.72566233 -139.06891951 36.9589019 -126.86328125 21.25 C-124.66113706 18.72887157 -122.38278421 16.35042042 -120 14 C-119.31292969 13.30261719 -118.62585938 12.60523438 -117.91796875 11.88671875 C-105.06321946 -0.39564838 -89.10461105 -5.68466181 -72 -9 C-70.85313721 -9.25910156 -70.85313721 -9.25910156 -69.68310547 -9.5234375 C-46.05155503 -13.72077931 -21.97168574 -8.40655802 0 0 Z " fill="#FDF9F9" transform="translate(724,534)"/>
<path d="M0 0 C1 1 1 1 1.11352539 4.23461914 C1.11336631 5.66814126 1.10767407 7.10166912 1.09765625 8.53515625 C1.09553383 9.66503212 1.09553383 9.66503212 1.09336853 10.81773376 C1.08775376 13.2326956 1.07519883 15.64756601 1.0625 18.0625 C1.0574869 19.69596221 1.05292366 21.32942586 1.04882812 22.96289062 C1.03777954 26.97529585 1.02050506 30.98763241 1 35 C0.34 35 -0.32 35 -1 35 C-1.29132813 34.2265625 -1.58265625 33.453125 -1.8828125 32.65625 C-6.54998893 20.79751241 -13.3763816 10.83007402 -24.9375 4.6875 C-33.61393962 0.93310797 -41.48795877 -0.50374917 -50.9375 -0.4375 C-51.94490234 -0.45748047 -52.95230469 -0.47746094 -53.99023438 -0.49804688 C-66.57895665 -0.48995123 -78.32617366 4.56312027 -87.625 13.0625 C-103.99496652 30.63215673 -104.90190467 51.78795512 -104.2265625 74.44287109 C-103.77301886 81.56370177 -101.98908504 87.52364908 -99 94 C-98.55398438 95.00417969 -98.10796875 96.00835938 -97.6484375 97.04296875 C-91.10239784 110.2996133 -80.01662349 120.2412698 -66 125 C-48.87680294 129.8835031 -30.09863503 128.21480552 -14.25 120.3125 C0.28981003 111.78105265 10.16151296 98.29298895 14.53173828 82.02001953 C16.61314792 73.13259408 17.54769585 64.10846981 18 55 C18.66 55 19.32 55 20 55 C20.56920648 77.20780966 19.75873508 97.97106149 4.5625 115.5625 C3.07377243 117.07397553 1.55416157 118.55589132 0 120 C-1.01126953 120.94746094 -1.01126953 120.94746094 -2.04296875 121.9140625 C-19.68820334 136.94396213 -42.81829798 138.58284064 -65 137 C-88.73322239 134.3643632 -109.44198221 124.63374467 -125.1875 106.375 C-135.077602 93.47573918 -138.10288424 79.90684918 -138.25 63.9375 C-138.2595874 63.01509521 -138.2691748 62.09269043 -138.27905273 61.14233398 C-138.1882965 42.62311211 -131.20138295 26.88166831 -118.5625 13.41015625 C-89.17767535 -14.22770474 -35.02958544 -19.29595808 0 0 Z " fill="#FDFAFA" transform="translate(556,534)"/>
<path d="M0 0 C20.46 0 40.92 0 62 0 C62 0.66 62 1.32 62 2 C61.40832031 2.08636719 60.81664062 2.17273438 60.20703125 2.26171875 C54.65855945 3.24831488 51.65250778 4.43436527 48 9 C46.75105982 11.49788036 46.86974425 13.18537016 46.86196899 15.98117065 C46.85651566 17.03517563 46.85106232 18.0891806 46.84544373 19.17512512 C46.8444014 20.33662582 46.84335907 21.49812653 46.84228516 22.69482422 C46.83720444 23.91454422 46.83212372 25.13426422 46.82688904 26.39094543 C46.81616373 29.0488315 46.80716855 31.70666483 46.80076981 34.36455917 C46.7900811 38.57707629 46.76982958 42.7895133 46.74765015 47.00198364 C46.68576929 58.98272998 46.63185915 70.9634734 46.59863281 82.94433594 C46.58021069 89.55799855 46.5511729 96.17152849 46.5106281 102.78509343 C46.48966948 106.28092495 46.47411697 109.77659001 46.47182083 113.27248764 C46.46924805 117.1855397 46.44365635 121.09826828 46.41650391 125.01123047 C46.42101311 126.72311806 46.42101311 126.72311806 46.4256134 128.46958923 C46.26376162 144.25943228 41.44180327 158.28944054 30.421875 169.80859375 C26.61098155 173.25683766 22.6172496 175.76869756 18 178 C16.95779297 178.50853516 16.95779297 178.50853516 15.89453125 179.02734375 C4.57299599 183.63667424 -6.94832265 181.25914942 -17.953125 177.2890625 C-21 176 -21 176 -24 174 C-24 173.34 -24 172.68 -24 172 C-23.10539062 171.98582031 -22.21078125 171.97164062 -21.2890625 171.95703125 C-11.57944329 171.57402921 -4.73888881 169.89641969 2.8125 163.6875 C13.44593297 150.62356806 15.30432307 136.92904618 15.29052734 120.42016602 C15.29724457 119.23796982 15.30396179 118.05577362 15.31088257 116.8377533 C15.32969888 112.9764269 15.33377696 109.11527546 15.3359375 105.25390625 C15.33878967 103.91394412 15.34198267 102.57398267 15.34550858 101.23402214 C15.36391721 94.23094858 15.37218883 87.22795048 15.37060547 80.22485352 C15.36939936 73.71542555 15.39061655 67.20632657 15.4220928 60.69698197 C15.44826054 55.08391796 15.4589729 49.47096166 15.45769465 43.85783714 C15.45718611 40.51535341 15.46466654 37.17339879 15.48405075 33.83093452 C15.50362032 30.11169926 15.49790966 26.39332097 15.48583984 22.67407227 C15.50269836 21.02587997 15.50269836 21.02587997 15.51989746 19.34439087 C15.46960762 13.25379625 15.09605394 9.62599701 11 5 C7.69678862 2.60801935 3.98366713 2.4596539 0 2 C0 1.34 0 0.68 0 0 Z " fill="#FEFDFD" transform="translate(343,527)"/>
<path d="M0 0 C1.58418732 0.00031723 1.58418732 0.00031723 3.20037842 0.00064087 C41.18589929 0.07535557 79.51937381 2.17780969 115.4375 15.375 C115.4375 16.035 115.4375 16.695 115.4375 17.375 C90.30435147 26.68851794 64.97419355 29.36983279 38.4375 31.375 C37.48278809 31.44847656 36.52807617 31.52195312 35.54443359 31.59765625 C2.66629917 34.01073034 -32.13265053 33.71775483 -64.59814453 27.70996094 C-67.75733451 27.1712574 -70.94066477 26.85418629 -74.125 26.5 C-85.29401619 25.05688064 -96.29776449 22.00763721 -106.5625 17.375 C-106.5625 16.715 -106.5625 16.055 -106.5625 15.375 C-92.70751793 8.84857424 -77.35570339 6.28771677 -62.3125 4.1875 C-60.6577063 3.95546875 -60.6577063 3.95546875 -58.96948242 3.71875 C-39.36734562 1.14596081 -19.7637541 -0.037161 0 0 Z " fill="#FEFBFB" transform="translate(535.5625,455.625)"/>
<path d="M0 0 C2.31361802 3.47042703 2.51020728 4.91834173 2 9 C-0.38682245 11.47206611 -2.6479941 12.40142752 -6 13 C-4.88625 13.12375 -3.7725 13.2475 -2.625 13.375 C1 14 1 14 3 16 C2.8125 18.5 2.8125 18.5 2 21 C-0.99738941 22.99825961 -1.63347508 23.27550398 -5 23.25 C-6.0209375 23.25773438 -6.0209375 23.25773438 -7.0625 23.265625 C-9 23 -9 23 -12 21 C-12 17 -12 17 -10 15 C-9.1762044 13.03871245 -9.1762044 13.03871245 -9 11 C-9.66 10.34 -10.32 9.68 -11 9 C-11.32339354 5.96010077 -11.45670212 3.85631647 -10 1.125 C-6.62193105 -0.77516379 -3.83381731 -0.36512546 0 0 Z " fill="#F2CBCD" transform="translate(576,742)"/>
<path d="M0 0 C1.134375 -0.2475 2.26875 -0.495 3.4375 -0.75 C7 -1 7 -1 9.5 1 C11.4354156 4.87083121 11.14659129 6.87227134 10 11 C8.8125 12.9375 8.8125 12.9375 7 14 C3.90498792 14.25265405 1.79870027 14.39935013 -1 13 C-1 15.31 -1 17.62 -1 20 C-0.34 20.33 0.32 20.66 1 21 C-1.31 21 -3.62 21 -6 21 C-5.34 20.67 -4.68 20.34 -4 20 C-4 14.06 -4 8.12 -4 2 C-4.66 2 -5.32 2 -6 2 C-6 1.34 -6 0.68 -6 0 C-3 -1 -3 -1 0 0 Z " fill="#FCF3F4" transform="translate(363,743)"/>
<path d="M0 0 C0 0.66 0 1.32 0 2 C0.99 1.34 1.98 0.68 3 0 C6.10857 -0.23314275 8.01413769 0.00471256 11 1 C11.99 0.79375 12.98 0.5875 14 0.375 C17 0 17 0 18.67578125 1.12109375 C20.50772953 3.7204068 20.29849936 5.54251802 20.1875 8.6875 C20.16042969 9.68136719 20.13335937 10.67523437 20.10546875 11.69921875 C20.07066406 12.45847656 20.03585937 13.21773437 20 14 C20.66 14.33 21.32 14.66 22 15 C19.69 15 17.38 15 15 15 C15 11.04 15 7.08 15 3 C13.68 3.33 12.36 3.66 11 4 C11 7.63 11 11.26 11 15 C9.02 15 7.04 15 5 15 C5 11.04 5 7.08 5 3 C3.68 3.33 2.36 3.66 1 4 C0.67 7.3 0.34 10.6 0 14 C0.66 14.33 1.32 14.66 2 15 C-0.31 15 -2.62 15 -5 15 C-4.34 14.67 -3.68 14.34 -3 14 C-3 10.37 -3 6.74 -3 3 C-3.66 3 -4.32 3 -5 3 C-5 2.34 -5 1.68 -5 1 C-3 0 -3 0 0 0 Z " fill="#F5DBDC" transform="translate(321,742)"/>
<path d="M0 0 C4.0743356 0.84881992 5.54405875 2.30225596 8 5.625 C8.67064058 9.27626535 8.48198314 10.86186002 6.5 14 C3.46478198 15.97289171 1.47802406 16.26471021 -2.09375 16.078125 C-4 15.625 -4 15.625 -6.5 13.4375 C-8.14925334 10.34515 -8.76887558 9.0422248 -8 5.625 C-5.53235541 2.35899981 -4.04381805 0.84246209 0 0 Z " fill="#F5D8D9" transform="translate(396,741.375)"/>
<path d="M0 0 C2.45898655 -0.08076963 4.91533742 -0.14037143 7.375 -0.1875 C8.07367188 -0.21263672 8.77234375 -0.23777344 9.4921875 -0.26367188 C11.5234375 -0.29296875 11.5234375 -0.29296875 15 0 C17 3 17 3 17 6 C16.34 6 15.68 6 15 6 C14.34 5.01 13.68 4.02 13 3 C9.43230448 2.26393501 9.43230448 2.26393501 6 2 C6 4.64 6 7.28 6 10 C7.98 10 9.96 10 12 10 C12.33 9.34 12.66 8.68 13 8 C14 9 14 9 14.0625 11.5625 C14.041875 12.366875 14.02125 13.17125 14 14 C11.36 13.34 8.72 12.68 6 12 C6.33 14.64 6.66 17.28 7 20 C9.832168 20.33448259 9.832168 20.33448259 13 20 C15.37719693 18.12498069 15.37719693 18.12498069 17 16 C17.042721 17.66611905 17.04063832 19.33382885 17 21 C16 22 16 22 12.40234375 22.09765625 C10.91403133 22.0909822 9.42573568 22.07902183 7.9375 22.0625 C7.17888672 22.05798828 6.42027344 22.05347656 5.63867188 22.04882812 C3.75908129 22.0370068 1.87953101 22.01907078 0 22 C0.66 21.67 1.32 21.34 2 21 C2 14.73 2 8.46 2 2 C1.34 2 0.68 2 0 2 C0 1.34 0 0.68 0 0 Z " fill="#FAECED" transform="translate(284,735)"/>
<path d="M0 0 C2.31 0 4.62 0 7 0 C6.67 0.99 6.34 1.98 6 3 C6.88319294 6.15020361 6.88319294 6.15020361 8 9 C8.99 6.69 9.98 4.38 11 2 C10.34 2 9.68 2 9 2 C9 1.34 9 0.68 9 0 C11.31 0 13.62 0 16 0 C16.22786458 2.01822917 16.45572917 4.03645833 16.68359375 6.0546875 C16.91292961 8.07404316 16.91292961 8.07404316 18 10 C18.99 7.36 19.98 4.72 21 2 C20.34 2 19.68 2 19 2 C19 1.34 19 0.68 19 0 C20.65 0 22.3 0 24 0 C22.36041242 5.23272633 20.61047965 10.15196636 18 15 C17.01 15 16.02 15 15 15 C14.71125 14.030625 14.4225 13.06125 14.125 12.0625 C13.35785318 8.89335797 13.35785318 8.89335797 11 8 C10.34 10.31 9.68 12.62 9 15 C7.109375 14.7734375 7.109375 14.7734375 5 14 C3.953125 12.0390625 3.953125 12.0390625 3.25 9.625 C3.00765625 8.83351563 2.7653125 8.04203125 2.515625 7.2265625 C2 5 2 5 2 2 C1.34 2 0.68 2 0 2 C0 1.34 0 0.68 0 0 Z " fill="#F5DADB" transform="translate(418,742)"/>
<path d="M0 0 C2.31243792 -0.02685412 4.6249627 -0.04632841 6.9375 -0.0625 C8.22527344 -0.07410156 9.51304687 -0.08570313 10.83984375 -0.09765625 C14 0 14 0 15 1 C15.04063832 2.66617115 15.042721 4.33388095 15 6 C14.62875 5.525625 14.2575 5.05125 13.875 4.5625 C11.37353038 2.47794198 9.18406582 2.35378509 6 2 C6 4.97 6 7.94 6 11 C7.65 11 9.3 11 11 11 C11 10.34 11 9.68 11 9 C11.66 9 12.32 9 13 9 C13 10.65 13 12.3 13 14 C10.69 13.67 8.38 13.34 6 13 C6 15.64 6 18.28 6 21 C6.66 21.33 7.32 21.66 8 22 C5.36 22 2.72 22 0 22 C0.33 21.34 0.66 20.68 1 20 C1.15004973 18.6265365 1.24838006 17.2471474 1.31640625 15.8671875 C1.35830078 15.06152344 1.40019531 14.25585938 1.44335938 13.42578125 C1.48267578 12.58402344 1.52199219 11.74226562 1.5625 10.875 C1.60568359 10.02550781 1.64886719 9.17601562 1.69335938 8.30078125 C1.79954236 6.20071777 1.90028497 4.10038052 2 2 C1.34 2 0.68 2 0 2 C0 1.34 0 0.68 0 0 Z " fill="#FAEBEC" transform="translate(614,735)"/>
<path d="M0 0 C3.62490547 0.67966978 4.90496287 1.54564653 7 4.5625 C6.67 5.8825 6.34 7.2025 6 8.5625 C3.03 8.5625 0.06 8.5625 -3 8.5625 C-2.34 9.8825 -1.68 11.2025 -1 12.5625 C0.65 12.5625 2.3 12.5625 4 12.5625 C4.33 11.9025 4.66 11.2425 5 10.5625 C5.66 10.5625 6.32 10.5625 7 10.5625 C5.125 14.4375 5.125 14.4375 4 15.5625 C0.14202645 15.92645977 -2.15988698 16.12257535 -5.4375 13.9375 C-7.48384007 10.82706309 -7.59807728 9.22572334 -7 5.5625 C-5.00082867 2.02550457 -4.03889466 0.75729275 0 0 Z " fill="#ECB4B6" transform="translate(763,741.4375)"/>
<path d="M0 0 C2.38214297 0.68982138 2.38214297 0.68982138 5.3125 -0.125 C8.25 -0.5 8.25 -0.5 9.890625 0.58984375 C11.79248816 3.2622894 11.76282598 5.43856318 11.9375 8.6875 C12.00324219 9.77417969 12.06898438 10.86085938 12.13671875 11.98046875 C12.17410156 12.81191406 12.21148438 13.64335938 12.25 14.5 C10.27 14.5 8.29 14.5 6.25 14.5 C6.58 10.54 6.91 6.58 7.25 2.5 C5.6 2.83 3.95 3.16 2.25 3.5 C2.25 7.13 2.25 10.76 2.25 14.5 C0.27 14.5 -1.71 14.5 -3.75 14.5 C-3.75 9.88 -3.75 5.26 -3.75 0.5 C-1.75 -0.5 -1.75 -0.5 0 0 Z " fill="#F5DADB" transform="translate(536.75,742.5)"/>
<path d="M0 0 C3.3125 0.9375 3.3125 0.9375 5.3125 2.9375 C4.9375 5.5625 4.9375 5.5625 4.3125 7.9375 C1.3425 7.9375 -1.6275 7.9375 -4.6875 7.9375 C-4.0275 9.2575 -3.3675 10.5775 -2.6875 11.9375 C1.02849191 12.13836443 2.08458445 12.0894437 5.3125 9.9375 C4.9375 11.875 4.9375 11.875 4.3125 13.9375 C1.22076248 15.48336876 -1.28179552 15.23109521 -4.6875 14.9375 C-7.125 13.3125 -7.125 13.3125 -8.6875 10.9375 C-9.25 8 -9.25 8 -8.6875 4.9375 C-5.94937901 1.03775192 -4.83924192 -0.08202105 0 0 Z " fill="#EDBBBC" transform="translate(464.6875,742.0625)"/>
<path d="M0 0 C0 3.96 0 7.92 0 12 C1.98 11.67 3.96 11.34 6 11 C6 8.03 6 5.06 6 2 C5.34 2 4.68 2 4 2 C4 1.34 4 0.68 4 0 C5.65 -0.33 7.3 -0.66 9 -1 C9 3.62 9 8.24 9 13 C9.66 13.33 10.32 13.66 11 14 C8.66666667 14 6.33333333 14 4 14 C3.01 14.04125 2.02 14.0825 1 14.125 C-2 14 -2 14 -4 12 C-4.1953125 9.6171875 -4.1953125 9.6171875 -4.125 6.875 C-4.10695313 5.96492187 -4.08890625 5.05484375 -4.0703125 4.1171875 C-4.04710937 3.41851563 -4.02390625 2.71984375 -4 2 C-4.66 2 -5.32 2 -6 2 C-6 1.34 -6 0.68 -6 0 C-3 -1 -3 -1 0 0 Z " fill="#F4D6D7" transform="translate(704,743)"/>
<path d="M0 0 C2.01822917 0.06510417 4.03645833 0.13020833 6.0546875 0.1953125 C6.3846875 1.8453125 6.7146875 3.4953125 7.0546875 5.1953125 C6.0646875 4.5353125 5.0746875 3.8753125 4.0546875 3.1953125 C2.39919219 2.81031359 0.7324442 2.46738115 -0.9453125 2.1953125 C-0.6153125 3.1853125 -0.2853125 4.1753125 0.0546875 5.1953125 C3.55763621 6.91098911 3.55763621 6.91098911 7.0546875 8.1953125 C7.09723106 10.19485996 7.09549533 12.19572886 7.0546875 14.1953125 C6.0546875 15.1953125 6.0546875 15.1953125 3.98828125 15.29296875 C3.16457031 15.28136719 2.34085938 15.26976562 1.4921875 15.2578125 C0.66589844 15.24878906 -0.16039062 15.23976563 -1.01171875 15.23046875 C-1.64980469 15.21886719 -2.28789063 15.20726562 -2.9453125 15.1953125 C-3.2753125 13.8753125 -3.6053125 12.5553125 -3.9453125 11.1953125 C-2.4603125 12.1853125 -2.4603125 12.1853125 -0.9453125 13.1953125 C1.68000274 13.36244819 1.68000274 13.36244819 4.0546875 13.1953125 C4.0546875 12.5353125 4.0546875 11.8753125 4.0546875 11.1953125 C1.4146875 9.8753125 -1.2253125 8.5553125 -3.9453125 7.1953125 C-4.0703125 4.8203125 -4.0703125 4.8203125 -3.9453125 2.1953125 C-1.9453125 0.1953125 -1.9453125 0.1953125 0 0 Z " fill="#F9E8E9" transform="translate(788.9453125,741.8046875)"/>
<path d="M0 0 C2.66916589 0.61009506 4.55724946 0.15756263 7.1875 -0.5 C7.5175 1.15 7.8475 2.8 8.1875 4.5 C7.1975 4.5 6.2075 4.5 5.1875 4.5 C4.5275 3.84 3.8675 3.18 3.1875 2.5 C1.52407163 4.16342837 1.82701903 6.2825709 1.625 8.5625 C1.49931641 9.94115234 1.49931641 9.94115234 1.37109375 11.34765625 C1.31050781 12.05792969 1.24992187 12.76820313 1.1875 13.5 C2.1775 13.83 3.1675 14.16 4.1875 14.5 C1.5475 14.5 -1.0925 14.5 -3.8125 14.5 C-3.8125 9.88 -3.8125 5.26 -3.8125 0.5 C-1.8125 -0.5 -1.8125 -0.5 0 0 Z " fill="#F7E0E1" transform="translate(488.8125,742.5)"/>
<path d="M0 0 C1 1 1 1 1.1875 4.375 C1 8 1 8 -1 11 C-5.875 10.125 -5.875 10.125 -7 9 C-7.07179964 7.48071962 -7.08392007 5.95832518 -7.0625 4.4375 C-7.05347656 3.61121094 -7.04445313 2.78492188 -7.03515625 1.93359375 C-7.02355469 1.29550781 -7.01195312 0.65742187 -7 0 C-4.31633121 -1.3418344 -2.84719317 -0.73004953 0 0 Z " fill="#C62026" transform="translate(369,745)"/>
<path d="M0 0 C2.5625 0.1875 2.5625 0.1875 4.5625 2.1875 C4.828125 4.0625 4.828125 4.0625 4.8125 6.1875 C4.81765625 6.88875 4.8228125 7.59 4.828125 8.3125 C4.5625 10.1875 4.5625 10.1875 2.5625 12.1875 C0.5625 12 0.5625 12 -1.4375 11.1875 C-3.87519218 7.53096173 -3.67694439 5.49749899 -3.4375 1.1875 C-2.4375 0.1875 -2.4375 0.1875 0 0 Z " fill="#C21117" transform="translate(395.4375,743.8125)"/>
<path d="M0 0 C0 1.32 0 2.64 0 4 C-0.99 4 -1.98 4 -3 4 C-3.66 3.34 -4.32 2.68 -5 2 C-6.14814997 4.29629994 -6.30769809 6.07698086 -6.5625 8.625 C-6.64628906 9.44226563 -6.73007812 10.25953125 -6.81640625 11.1015625 C-6.87699219 11.72804688 -6.93757812 12.35453125 -7 13 C-6.01 13.33 -5.02 13.66 -4 14 C-6.64 14 -9.28 14 -12 14 C-11.34 13.67 -10.68 13.34 -10 13 C-10 9.37 -10 5.74 -10 2 C-10.66 2 -11.32 2 -12 2 C-12 1.34 -12 0.68 -12 0 C-7.72369155 -1.42543615 -4.3018076 -0.95595724 0 0 Z " fill="#FDF7F8" transform="translate(742,743)"/>
<path d="M0 0 C0 0.99 0 1.98 0 3 C1.32 3 2.64 3 4 3 C4 3.66 4 4.32 4 5 C2.68 5 1.36 5 0 5 C0 8.63 0 12.26 0 16 C1.32 15.67 2.64 15.34 4 15 C3.67 15.99 3.34 16.98 3 18 C1.33388095 18.042721 -0.33382885 18.04063832 -2 18 C-3 17 -3 17 -3.09765625 14.27734375 C-3.08605469 13.17519531 -3.07445312 12.07304688 -3.0625 10.9375 C-3.05347656 9.83277344 -3.04445313 8.72804688 -3.03515625 7.58984375 C-3.02355469 6.73519531 -3.01195312 5.88054688 -3 5 C-3.66 5 -4.32 5 -5 5 C-5 3 -5 3 -3.625 1.375 C-2 0 -2 0 0 0 Z " fill="#F9E7E8" transform="translate(680,739)"/>
<path d="M0 0 C0 4.29 0 8.58 0 13 C1.65 13 3.3 13 5 13 C4.67 13.66 4.34 14.32 4 15 C1.125 15.125 1.125 15.125 -2 15 C-4.68092691 12.31907309 -4.38670257 10.60832637 -4.625 6.875 C-4.69976563 5.77929688 -4.77453125 4.68359375 -4.8515625 3.5546875 C-4.90054688 2.71164062 -4.94953125 1.86859375 -5 1 C-3 0 -3 0 0 0 Z " fill="#F5D9DA" transform="translate(649,742)"/>
<path d="M0 0 C0.66 0 1.32 0 2 0 C1.93489583 2.01822917 1.86979167 4.03645833 1.8046875 6.0546875 C1.81668311 8.23863645 1.81668311 8.23863645 4 10 C6.58354218 10.16687448 6.58354218 10.16687448 9 10 C9.33 9.34 9.66 8.68 10 8 C10.66 8 11.32 8 12 8 C10.125 11.875 10.125 11.875 9 13 C5.14202645 13.36395977 2.84011302 13.56007535 -0.4375 11.375 C-2.43777431 8.33458305 -2.45667063 6.5772533 -2 3 C-1.34 2.01 -0.68 1.02 0 0 Z " fill="#F9E8E9" transform="translate(758,744)"/>
<path d="M0 0 C2.25 -0.3125 2.25 -0.3125 5 0 C7.375 2.0625 7.375 2.0625 9 5 C8.93931504 8.51972785 8.66225706 10.91947533 6.8125 13.9375 C4.19357381 15.47273259 1.97085195 15.1980568 -1 15 C-0.360625 14.71125 0.27875 14.4225 0.9375 14.125 C3.15206079 13.17176549 3.15206079 13.17176549 4 11 C4.3052622 6.34724024 4.3052622 6.34724024 3 2 C2.01 1.34 1.02 0.68 0 0 Z " fill="#F8E3E4" transform="translate(365,742)"/>
<path d="M0 0 C0.66 0 1.32 0 2 0 C1.93489583 2.01822917 1.86979167 4.03645833 1.8046875 6.0546875 C1.81668311 8.23863645 1.81668311 8.23863645 4 10 C7.73296326 10.38286803 8.77626323 10.14915785 12 8 C11.625 9.9375 11.625 9.9375 11 12 C7.90826248 13.54586876 5.40570448 13.29359521 2 13 C-0.4375 11.375 -0.4375 11.375 -2 9 C-2.50299316 4.89222251 -2.32749345 3.49124017 0 0 Z " fill="#F8E6E6" transform="translate(458,744)"/>
<path d="M0 0 C0 4.62 0 9.24 0 14 C0.66 14.33 1.32 14.66 2 15 C-0.31 15 -2.62 15 -5 15 C-4.34 14.67 -3.68 14.34 -3 14 C-3 10.37 -3 6.74 -3 3 C-3.66 3 -4.32 3 -5 3 C-5 2.34 -5 1.68 -5 1 C-3 0 -3 0 0 0 Z " fill="#FBF1F2" transform="translate(321,742)"/>
<path d="M0 0 C0.66 0.33 1.32 0.66 2 1 C1.67 1.33 1.34 1.66 1 2 C0.66143172 7.32673036 0.66143172 7.32673036 3 12 C3.99 12.66 4.98 13.32 6 14 C3.25 14.3125 3.25 14.3125 0 14 C-2.62846098 11.57904909 -3.81388233 9.95385308 -4.5 6.4375 C-3.84973341 3.26745035 -2.43252005 2.0524388 0 0 Z " fill="#F8E4E5" transform="translate(392,743)"/>
<path d="M0 0 C0 4.62 0 9.24 0 14 C0.66 14.33 1.32 14.66 2 15 C0.35 15 -1.3 15 -3 15 C-4.03159626 11.90521121 -3.97482862 10.47368607 -3.5625 7.3125 C-3.46066406 6.50425781 -3.35882812 5.69601562 -3.25390625 4.86328125 C-3.17011719 4.24839844 -3.08632813 3.63351562 -3 3 C-3.66 3 -4.32 3 -5 3 C-5 2.34 -5 1.68 -5 1 C-3 0 -3 0 0 0 Z " fill="#FBEFF0" transform="translate(713,742)"/>
<path d="M0 0 C0 4.62 0 9.24 0 14 C0.66 14.33 1.32 14.66 2 15 C-0.31 15 -2.62 15 -5 15 C-4.34 14.67 -3.68 14.34 -3 14 C-3 10.37 -3 6.74 -3 3 C-3.66 3 -4.32 3 -5 3 C-5 2.34 -5 1.68 -5 1 C-2 0 -2 0 0 0 Z " fill="#FBF1F2" transform="translate(516,742)"/>
<path d="M0 0 C0 4.62 0 9.24 0 14 C0.66 14.33 1.32 14.66 2 15 C-0.4375 14.625 -0.4375 14.625 -3 14 C-4.26026798 11.47946405 -3.91874445 10.1457902 -3.5625 7.375 C-3.46066406 6.55773437 -3.35882812 5.74046875 -3.25390625 4.8984375 C-3.17011719 4.27195312 -3.08632813 3.64546875 -3 3 C-3.66 3 -4.32 3 -5 3 C-5 2.34 -5 1.68 -5 1 C-2 0 -2 0 0 0 Z " fill="#FBF2F2" transform="translate(658,742)"/>
<path d="M0 0 C1.67542976 0.28604898 3.34385343 0.61781233 5 1 C5 3.31 5 5.62 5 8 C3.35 7.67 1.7 7.34 0 7 C-0.38133299 5.0085944 -0.71325582 3.00720923 -1 1 C-0.67 0.67 -0.34 0.34 0 0 Z " fill="#C21116" transform="translate(569,744)"/>
<path d="M0 0 C2.31243792 -0.02685412 4.6249627 -0.04632841 6.9375 -0.0625 C8.22527344 -0.07410156 9.51304687 -0.08570313 10.83984375 -0.09765625 C14 0 14 0 15 1 C15.04063832 2.66617115 15.042721 4.33388095 15 6 C14.62875 5.525625 14.2575 5.05125 13.875 4.5625 C11.37353038 2.47794198 9.18406582 2.35378509 6 2 C6 4.97 6 7.94 6 11 C5.67 11 5.34 11 5 11 C5 7.7 5 4.4 5 1 C3.35 1.33 1.7 1.66 0 2 C0 1.34 0 0.68 0 0 Z " fill="#EDBABB" transform="translate(614,735)"/>
<path d="M0 0 C2.33944736 0.28730055 4.6739143 0.61936779 7 1 C7.33 2.32 7.66 3.64 8 5 C5.36 5 2.72 5 0 5 C-0.5625 3.0625 -0.5625 3.0625 -1 1 C-0.67 0.67 -0.34 0.34 0 0 Z " fill="#C31318" transform="translate(568,758)"/>
<path d="M0 0 C2.45898655 -0.08076963 4.91533742 -0.14037143 7.375 -0.1875 C8.07367188 -0.21263672 8.77234375 -0.23777344 9.4921875 -0.26367188 C11.5234375 -0.29296875 11.5234375 -0.29296875 15 0 C17 3 17 3 17 6 C16.34 6 15.68 6 15 6 C14.34 5.01 13.68 4.02 13 3 C9.88389446 2.41407366 9.88389446 2.41407366 6.375 2.3125 C5.18648438 2.24675781 3.99796875 2.18101562 2.7734375 2.11328125 C1.85820312 2.07589844 0.94296875 2.03851562 0 2 C0 1.34 0 0.68 0 0 Z " fill="#EEBCBD" transform="translate(284,735)"/>
<path d="M0 0 C1.65 0 3.3 0 5 0 C3.66666667 4 2.33333333 8 1 12 C0.01 11.67 -0.98 11.34 -2 11 C-0.68 8.03 0.64 5.06 2 2 C1.34 2 0.68 2 0 2 C0 1.34 0 0.68 0 0 Z " fill="#EFC0C2" transform="translate(437,742)"/>
<path d="M0 0 C3.27275026 0 5.846632 0.29925156 9 1 C9 2.32 9 3.64 9 5 C8.01 5 7.02 5 6 5 C5.34 4.34 4.68 3.68 4 3 C3.34 3.66 2.68 4.32 2 5 C1.34 3.35 0.68 1.7 0 0 Z " fill="#F3D1D2" transform="translate(733,742)"/>
<path d="M0 0 C1.5 1.125 1.5 1.125 3 3 C3.1875 6.1875 3.1875 6.1875 3 9 C2.01 9 1.02 9 0 9 C-0.66 6.36 -1.32 3.72 -2 1 C-1.34 0.67 -0.68 0.34 0 0 Z " fill="#FAEDEE" transform="translate(575,742)"/>
<path d="M0 0 C0.556875 0.185625 1.11375 0.37125 1.6875 0.5625 C4.399133 1.07551165 6.34371039 0.6640724 9 0 C9.33 1.65 9.66 3.3 10 5 C9.01 5 8.02 5 7 5 C6.34 4.34 5.68 3.68 5 3 C4.01 3 3.02 3 2 3 C2 2.34 2 1.68 2 1 C1.34 0.67 0.68 0.34 0 0 Z " fill="#F0C7C8" transform="translate(487,742)"/>
<path d="M0 0 C2.05078125 0.03255208 4.1015625 0.06510417 6.15234375 0.09765625 C6.48234375 1.74765625 6.81234375 3.39765625 7.15234375 5.09765625 C6.16234375 4.43765625 5.17234375 3.77765625 4.15234375 3.09765625 C2.49684844 2.71265734 0.83010045 2.3697249 -0.84765625 2.09765625 C-1.17765625 3.08765625 -1.50765625 4.07765625 -1.84765625 5.09765625 C-2.41015625 3.16015625 -2.41015625 3.16015625 -2.84765625 1.09765625 C-1.84765625 0.09765625 -1.84765625 0.09765625 0 0 Z " fill="#EEBDBF" transform="translate(788.84765625,741.90234375)"/>
<path d="M0 0 C4.455 0.99 4.455 0.99 9 2 C9 2.66 9 3.32 9 4 C2.25 4.125 2.25 4.125 0 3 C0 2.01 0 1.02 0 0 Z " fill="#FAECED" transform="translate(566,754)"/>
<path d="M0 0 C0.66 0.33 1.32 0.66 2 1 C2 2.65 2 4.3 2 6 C-0.64 5.34 -3.28 4.68 -6 4 C-6 3.34 -6 2.68 -6 2 C-4.02 2 -2.04 2 0 2 C0 1.34 0 0.68 0 0 Z " fill="#F0C6C7" transform="translate(296,743)"/>
<path d="M0 0 C1.65 0.33 3.3 0.66 5 1 C5 1.99 5 2.98 5 4 C3.02 4 1.04 4 -1 4 C-0.67 2.68 -0.34 1.36 0 0 Z " fill="#C10D13" transform="translate(761,744)"/>
<path d="M0 0 C1.65 0.33 3.3 0.66 5 1 C5 1.99 5 2.98 5 4 C3.02 4 1.04 4 -1 4 C-0.67 2.68 -0.34 1.36 0 0 Z " fill="#C10E14" transform="translate(461,744)"/>
</svg>
